# xmcd
#
# Track frame offsets:
#	150
#	17955
#	47375
#	76365
#
# Disc length: 1248 seconds
#
# Revision: 1
# Processed by: cddbd v1.5.2PL0 Copyright (c) Steve Scherf et al.
# Submitted via: EasyCDDAExtractor 7.0.5.4
#
DISCID=2404de04
DTITLE=Spectra - Free Your Soul [CDm '95)
DYEAR=1995
DGENRE=Eurodance
TTITLE0=Free Your Soul (Radio Mix)
TTITLE1=Free Your Soul (Extended Mix)
TTITLE2=Free Your Soul (Max Rex Mix)
TTITLE3=Free Your Soul (JPs Go On Beat Mix)
EXTD=
EXTT0=
EXTT1=
EXTT2=
EXTT3=
PLAYORDER=
